<svg xmlns="http://www.w3.org/2000/svg" width="394" height="394" viewBox="0 0 394 394">
  <g id="Forward" transform="translate(-521 -539)">
    <g id="Ellipse_2" data-name="Ellipse 2" transform="translate(521 539)" fill="none" stroke="#cc0018" stroke-width="17">
      <circle cx="197" cy="197" r="197" stroke="none"/>
      <circle cx="197" cy="197" r="188.5" fill="none"/>
    </g>
    <path id="Polygon_2" data-name="Polygon 2" d="M73.937,26.778a18,18,0,0,1,31.125,0l58.22,100.177A18,18,0,0,1,147.72,154H31.28a18,18,0,0,1-15.563-27.045Z" transform="translate(776.5 646.5) rotate(90)" fill="#cc0018"/>
    <path id="Polygon_3" data-name="Polygon 3" d="M73.937,26.778a18,18,0,0,1,31.125,0l58.22,100.177A18,18,0,0,1,147.72,154H31.28a18,18,0,0,1-15.563-27.045Z" transform="translate(873.5 646.5) rotate(90)" fill="#cc0018"/>
  </g>
</svg>
