<svg version="1.1" viewBox="0.0 0.0 960.0 720.0" fill="none" stroke="none" stroke-linecap="square" stroke-miterlimit="10" xmlns:xlink="http://www.w3.org/1999/xlink" xmlns="http://www.w3.org/2000/svg"><clipPath id="p.0"><path d="m0 0l960.0 0l0 720.0l-960.0 0l0 -720.0z" clip-rule="nonzero"/></clipPath><g clip-path="url(#p.0)"><path fill="#000000" fill-opacity="0.0" d="m0 0l960.0 0l0 720.0l-960.0 0z" fill-rule="evenodd"/><path fill="#000000" fill-opacity="0.0" d="m336.0 360.0l0 0c0 -79.52899 64.47101 -144.0 144.0 -144.0l0 0c38.191162 0 74.818115 15.171387 101.823364 42.176636c27.005249 27.005219 42.176636 63.632202 42.176636 101.823364l0 0c0 79.52899 -64.47101 144.0 -144.0 144.0l0 0c-79.52899 0 -144.0 -64.47101 -144.0 -144.0z" fill-rule="evenodd"/><path stroke="#ff0000" stroke-width="16.0" stroke-linejoin="round" stroke-linecap="butt" d="m336.0 360.0l0 0c0 -79.52899 64.47101 -144.0 144.0 -144.0l0 0c38.191162 0 74.818115 15.171387 101.823364 42.176636c27.005249 27.005219 42.176636 63.632202 42.176636 101.823364l0 0c0 79.52899 -64.47101 144.0 -144.0 144.0l0 0c-79.52899 0 -144.0 -64.47101 -144.0 -144.0z" fill-rule="evenodd"/><path fill="#ff0000" d="m398.6227 359.99908l0 -94.63257l110.73248 94.63257z" fill-rule="evenodd"/><path fill="#ff0000" d="m398.6227 359.99908l0 94.63257l110.73248 -94.63257z" fill-rule="evenodd"/><path fill="#ff0000" d="m480.00067 359.99908l0 -94.63257l110.73248 94.63257z" fill-rule="evenodd"/><path fill="#ff0000" d="m480.00067 359.99908l0 94.63257l110.73248 -94.63257z" fill-rule="evenodd"/></g></svg>